<svg width="159" height="113" viewBox="0 0 159 113" fill="none" xmlns="http://www.w3.org/2000/svg">
<path d="M120.755 0.464484C132.372 -0.0660162 146.631 -2.51351 148.965 12.834C150.696 24.218 151.268 35.7625 152.259 47.2435C154.178 69.096 156.209 90.9385 158.351 112.77C146.824 112.618 133.516 111.674 121.859 111.187C95.3584 110.107 68.8479 109.275 42.3314 108.69L2.15591 107.861C1.26191 101.577 0.776887 95.111 0.379387 88.7745C-0.0881132 81.3245 -0.197113 73.833 0.476387 66.392C1.62439 53.701 6.50789 27.643 15.0889 18.2915C26.2769 6.09998 103.017 1.23698 120.755 0.464484Z" fill="white"/>
</svg>
