<svg width="1006" height="362" viewBox="0 0 1006 362" fill="none" xmlns="http://www.w3.org/2000/svg">
<path d="M358.881 0.67715C423.119 -2.31685 502.259 4.49017 563.469 23.6412C629.844 44.4072 707.239 91.1962 762.309 134.667C771.699 134.82 784.279 133.961 793.259 134.986C806.149 136.458 820.539 139.523 833.204 142.53C871.069 151.524 910.734 163.315 945.149 181.778C963.879 191.827 977.929 205.75 984.844 225.975C986.864 231.89 988.359 238.43 990.834 244.075C992.019 245.895 993.879 248.035 995.394 249.57C1005.52 259.78 1006.76 277.35 1004.19 290.7C1003.66 293.44 998.439 297.205 999.644 301.095C1001.33 302.23 1001.85 302.445 1003.03 304.025C1003.98 309.17 1000.11 308.06 997.189 309.365C996.464 311.105 995.769 312.395 995.594 314.275C998.264 314.675 1000.71 315.02 1001.24 318.185C999.979 321.755 996.639 322.03 993.414 322.025C992.539 324.335 991.914 326.915 991.259 329.31C994.279 329.68 998.089 330.055 1000.46 332.12C1005.65 336.64 999.764 346.67 994.104 347.61C983.154 349.43 971.514 349.42 960.419 349.72C940.224 350.265 920.029 350.665 899.829 350.91C899.899 346.335 899.849 341.755 899.674 337.18C898.354 306.1 890.409 274.935 866.604 253.28C848.294 236.35 823.964 227.46 799.049 228.61C783.064 229.47 767.589 234.51 754.169 243.235C724.249 262.28 711.779 294.675 708.494 328.675C707.719 336.715 708.354 346.665 707.379 353.86C707.134 355.695 706.554 357.595 705.224 358.945C701.479 362.73 679.994 360.705 673.849 360.575L358.282 357.4C328.558 356.925 298.831 356.635 269.103 356.525C269.178 322.385 265.922 289.355 242.259 262.175C226.159 243.72 203.334 232.49 178.891 230.995C127.607 227.755 88.8672 262.74 79.8097 311.62C77.5417 323.865 76.8257 334.175 76.1677 346.625C64.2167 346.295 21.762 343.07 13.6947 335.405C11.6508 333.465 10.2051 330.98 9.52848 328.24C8.36158 323.515 9.08573 316.26 8.37698 311.05L2.39218 269.74C-0.013423 252.825 -3.08057 252.95 7.04378 237.51C13.2526 228.045 14.5311 225.78 22.879 217.65C23.7119 212.42 23.8811 203.65 24.3542 197.965C25.7317 182.962 28.1599 165.009 34.1142 151.175C40.8787 135.458 54.8987 115.197 65.6977 101.707C86.8102 75.3327 119.101 50.7372 150.238 37.3752C149.807 34.6147 148.575 28.1552 150.643 26.3222C156.232 21.3672 172.741 25.2627 178.661 24.1532C185.536 22.8647 192.399 21.1862 198.854 19.8067C212.04 16.9682 225.283 14.4047 238.575 12.1182C278.392 5.74166 318.576 1.92015 358.881 0.67715Z" fill="black"/>
</svg>
